<svg xmlns="http://www.w3.org/2000/svg" viewBox="0 0 720 220">
  <defs>
    <linearGradient id="g" x1="0" x2="1">
      <stop offset="0" stop-color="#f7c948"/>
      <stop offset="1" stop-color="#ffe27a"/>
    </linearGradient>
  </defs>
  <rect width="720" height="220" rx="32" fill="#07182f"/>
  <circle cx="92" cy="110" r="58" fill="none" stroke="url(#g)" stroke-width="10"/>
  <path d="M55 122c26 34 77 34 103 0" fill="none" stroke="url(#g)" stroke-width="10" stroke-linecap="round"/>
  <path d="M75 121c14-22 47-22 61 0" fill="none" stroke="url(#g)" stroke-width="10" stroke-linecap="round"/>
  <circle cx="67" cy="82" r="10" fill="#f7c948"/>
  <circle cx="90" cy="65" r="10" fill="#f7c948"/>
  <circle cx="115" cy="65" r="10" fill="#f7c948"/>
  <circle cx="138" cy="82" r="10" fill="#f7c948"/>
  <path d="M83 105c6-20 32-20 39 0 5 16-8 27-20 27s-24-11-19-27z" fill="#f7c948"/>
  <text x="185" y="95" font-family="Arial, Helvetica, sans-serif" font-size="48" font-weight="900" fill="#f7c948">Golden Paws</text>
  <text x="185" y="145" font-family="Arial, Helvetica, sans-serif" font-size="42" font-weight="900" fill="#ffffff">&amp; Care</text>
  <text x="185" y="178" font-family="Arial, Helvetica, sans-serif" font-size="16" font-weight="700" letter-spacing="3" fill="#ffffff">PETS • SENIORS • FAMILIES</text>
</svg>